#!OML:ASF X:\für Bonn\!DataBase\2005_08_12_Daniel\c3d\Daniel.ASF
:FULLY-SPECIFIED
:DEGREES
82
root -0.77834 17.2905 0.844368 112.53 -79.5621 -129.543
lowerback 29.3426 -9.33397 2.66168
upperback 7.00675 -11.9713 0.248942
thorax -8.41759 -6.05835 3.10173
lowerneck 2.97742 7.09343 -0.345335
upperneck 10.073 9.51163 -5.11013
head 2.9807 4.40477 -1.42669
rclavicle 1.0953e-013 -4.85035e-014
rhumerus -42.9195 13.2583 -80.082
rradius 61.726
rwrist 3.70587
rhand -40.9207 43.476
rfingers 7.12502
rthumb -13.8552 13.9575
lclavicle 1.0953e-013 -4.85035e-014
lhumerus 23.7637 2.70771 71.5016
lradius 125.284
lwrist 27.4994
lhand -19.1318 -15.9475
lfingers 7.12502
lthumb 7.17788 13.9107
rfemur -23.7071 -0.992921 20.1598
rtibia 65.7703
rfoot 4.58873 -8.98682
rtoes -10.0739
lfemur 3.86885 -15.0274 -18.9597
ltibia 35.405
lfoot -32.4174 19.4298
ltoes 6.56266
83
root -0.802973 17.2885 0.813528 114.896 -79.5068 -131.494
lowerback 28.6355 -9.05305 2.85952
upperback 6.78932 -11.5482 0.246136
thorax -8.37128 -5.84897 2.75679
lowerneck 3.02756 7.00482 -0.401107
upperneck 10.0599 9.38316 -4.95425
head 2.95007 4.34668 -1.37164
rclavicle -3.33958e-014 4.85035e-014
rhumerus -42.3151 13.0739 -80.2956
rradius 61.4432
rwrist 3.88608
rhand -40.6374 43.5698
rfingers 7.12502
rthumb -13.5822 14.0328
lclavicle -3.33958e-014 4.85035e-014
lhumerus 22.5053 2.81326 71.3314
lradius 124.977
lwrist 27.3991
lhand -18.862 -15.9268
lfingers 7.12502
lthumb 7.43839 13.9224
rfemur -22.0737 0.0241366 20.0233
rtibia 63.0499
rfoot 4.33958 -9.16387
rtoes -9.92918
lfemur 3.5573 -15.1415 -19.0366
ltibia 35.4779
lfoot -32.8387 19.6829
ltoes 6.60923
84
root -0.827796 17.2836 0.780385 117.319 -79.4461 -133.51
lowerback 27.9312 -8.76069 3.02934
upperback 6.58774 -11.1231 0.230515
thorax -8.29782 -5.64005 2.41482
lowerneck 3.01719 6.91914 -0.429158
upperneck 10.0981 9.26355 -4.81218
head 2.95088 4.29102 -1.32276
rclavicle 1.19271e-015 -1.11319e-014
rhumerus -41.6991 12.8818 -80.5275
rradius 61.1026
rwrist 4.03549
rhand -40.2699 43.7325
rfingers 7.12502
rthumb -13.228 14.1722
lclavicle 1.19271e-015 -1.11319e-014
lhumerus 21.1992 2.88327 71.0764
lradius 124.66
lwrist 27.2732
lhand -18.6559 -15.9801
lfingers 7.12502
lthumb 7.63732 13.862
rfemur -20.4785 1.11274 19.9147
rtibia 60.3816
rfoot 3.94376 -9.38401
rtoes -9.46297
lfemur 3.23014 -15.214 -19.1077
ltibia 35.5909
lfoot -33.2617 19.878
ltoes 6.67439
85
root -0.852675 17.2797 0.745049 119.667 -79.4186 -135.458
lowerback 27.2479 -8.47673 3.16414
upperback 6.37601 -10.7192 0.202983
thorax -8.23474 -5.44008 2.09459
lowerneck 3.05998 6.84132 -0.476028
upperneck 10.0926 9.151 -4.6757
head 2.92702 4.23989 -1.27479
rclavicle -1.00038e-013 3.57812e-014
rhumerus -41.1195 12.7518 -80.7938
rradius 60.7617
rwrist 4.14017
rhand -39.946 43.865
rfingers 7.12502
rthumb -12.9157 14.2847
lclavicle -1.00038e-013 3.57812e-014
lhumerus 19.7836 2.94623 70.7621
lradius 124.397
lwrist 27.1892
lhand -18.4295 -16.0306
lfingers 7.12502
lthumb 7.85584 13.8034
rfemur -18.9134 2.25704 19.8054
rtibia 57.7586
rfoot 3.39352 -9.64074
rtoes -9.58672
lfemur 2.89918 -15.2944 -19.207
ltibia 35.7211
lfoot -33.6876 20.0604
ltoes 6.71046
86
root -0.876618 17.2729 0.70808 122.07 -79.3938 -137.487
lowerback 26.5918 -8.17837 3.27187
upperback 6.17903 -10.307 0.160984
thorax -8.15957 -5.23688 1.77715
lowerneck 3.1152 6.75407 -0.522618
upperneck 10.0837 9.02382 -4.51774
head 2.89837 4.18245 -1.22071
rclavicle 5.6107e-014 -3.45885e-014
rhumerus -40.5844 12.6725 -81.0903
rradius 60.4572
rwrist 4.19846
rhand -39.6949 43.9378
rfingers 7.12502
rthumb -12.6736 14.3423
lclavicle 5.6107e-014 -3.45885e-014
lhumerus 18.2804 2.92062 70.4032
lradius 124.197
lwrist 27.0206
lhand -18.3152 -16.1303
lfingers 7.12502
lthumb 7.96609 13.6996
rfemur -17.3697 3.41885 19.6941
rtibia 55.2021
rfoot 2.70643 -9.80081
rtoes -9.77374
lfemur 2.59707 -15.3954 -19.3359
ltibia 35.8481
lfoot -34.134 20.2191
ltoes 6.80582
87
root -0.899764 17.2668 0.669869 124.397 -79.3812 -139.45
lowerback 25.9502 -7.8923 3.36214
upperback 5.99287 -9.91771 0.106733
thorax -8.07248 -5.04506 1.46908
lowerneck 3.18335 6.67282 -0.514879
upperneck 10.0709 8.90915 -4.43141
head 2.87391 4.13095 -1.19891
rclavicle -8.63222e-014 3.85642e-014
rhumerus -40.0496 12.6384 -81.4322
rradius 60.1358
rwrist 4.256
rhand -39.4596 43.9647
rfingers 7.12502
rthumb -12.4468 14.3553
lclavicle -8.63222e-014 3.85642e-014
lhumerus 16.7751 2.90518 70.1052
lradius 124
lwrist 26.779
lhand -18.1764 -16.1989
lfingers 7.12502
lthumb 8.10011 13.6258
rfemur -15.87 4.59636 19.6074
rtibia 52.7264
rfoot 1.90219 -9.97676
rtoes -10.2046
lfemur 2.29823 -15.4719 -19.4628
ltibia 35.9558
lfoot -34.5168 20.3787
ltoes 6.87067
88
root -0.922514 17.2616 0.629707 126.628 -79.3498 -141.348
lowerback 25.3589 -7.59974 3.43951
upperback 5.80918 -9.52201 0.0630838
thorax -7.99756 -4.85015 1.18818
lowerneck 3.30613 6.59275 -0.561199
upperneck 10.018 8.78989 -4.31275
head 2.82139 4.07781 -1.16008
rclavicle -6.93758e-014 4.77083e-015
rhumerus -39.587 12.6918 -81.7891
rradius 59.8782
rwrist 4.18853
rhand -39.2664 43.8676
rfingers 7.12502
rthumb -12.2605 14.247
lclavicle -6.93758e-014 4.77083e-015
lhumerus 15.1794 2.81425 69.7663
lradius 123.81
lwrist 26.4399
lhand -18.2244 -16.2029
lfingers 7.12502
lthumb 8.0538 13.6236
rfemur -14.4011 5.87431 19.5848
rtibia 50.3512
rfoot 0.957116 -10.2586
rtoes -10.7592
lfemur 2.04455 -15.5616 -19.5819
ltibia 36.0515
lfoot -34.9143 20.5413
ltoes 6.89963
89
root -0.944137 17.257 0.588686 128.849 -79.3338 -143.254
lowerback 24.7959 -7.31389 3.48158
upperback 5.62923 -9.14467 0.00710086
thorax -7.92469 -4.66363 0.926558
lowerneck 3.44015 6.51456 -0.570651
upperneck 9.98915 8.6757 -4.23718
head 2.77992 4.02597 -1.14111
rclavicle -1.19768e-014 1.94809e-014
rhumerus -39.1922 12.6415 -82.1622
rradius 59.6392
rwrist 4.24875
rhand -39.1087 43.7823
rfingers 7.12502
rthumb -12.1084 14.1526
lclavicle -1.19768e-014 1.94809e-014
lhumerus 13.4948 2.71874 69.386
lradius 123.618
lwrist 26.0249
lhand -18.2766 -16.153
lfingers 7.12502
lthumb 8.00334 13.6754
rfemur -12.9835 7.16745 19.5748
rtibia 48.0883
rfoot -0.120763 -10.6023
rtoes -11.5364
lfemur 1.81094 -15.6819 -19.7354
ltibia 36.1382
lfoot -35.3048 20.7096
ltoes 6.94324
90
root -0.963941 17.2509 0.545651 130.854 -79.3122 -144.971
lowerback 24.3032 -7.04087 3.52116
upperback 5.44408 -8.78091 -0.0339527
thorax -7.88595 -4.48329 0.699662
lowerneck 3.6374 6.45114 -0.632478
upperneck 9.92531 8.5746 -4.13118
head 2.71157 3.98092 -1.10588
rclavicle -1.89839e-014 -1.15295e-014
rhumerus -38.8329 12.6907 -82.5395
rradius 59.4002
rwrist 4.23545
rhand -38.9305 43.5568
rfingers 7.12502
rthumb -11.9366 13.9171
lclavicle -1.89839e-014 -1.15295e-014
lhumerus 11.7514 2.54069 68.9541
lradius 123.363
lwrist 25.513
lhand -18.4837 -16.0119
lfingers 7.12502
lthumb 7.80345 13.8241
rfemur -11.6085 8.39868 19.6197
rtibia 45.9437
rfoot -1.29952 -10.9742
rtoes -12.071
lfemur 1.5808 -15.7404 -19.8287
ltibia 36.2346
lfoot -35.6322 20.8012
ltoes 6.99492
91
root -0.982733 17.2425 0.501116 132.801 -79.2739 -146.65
lowerback 23.8204 -6.76192 3.54195
upperback 5.29525 -8.41772 -0.0794607
thorax -7.80616 -4.30461 0.479976
lowerneck 3.75341 6.38082 -0.639643
upperneck 9.90295 8.47201 -4.05485
head 2.67636 3.93442 -1.08593
rclavicle 7.25067e-014 -2.10712e-014
rhumerus -38.4376 12.7516 -82.9488
rradius 59.127
rwrist 4.22323
rhand -38.845 43.2496
rfingers 7.12502
rthumb -11.8542 13.6052
lclavicle 7.25067e-014 -2.10712e-014
lhumerus 9.99917 2.33063 68.517
lradius 123.027
lwrist 24.9675
lhand -18.694 -15.7734
lfingers 7.12502
lthumb 7.60047 14.0701
rfemur -10.2996 9.49653 19.686
rtibia 43.9169
rfoot -2.64297 -11.3843
rtoes -12.1824
lfemur 1.36318 -15.8179 -19.9204
ltibia 36.3507
lfoot -35.99 20.9018
ltoes 7.0134
92
root -0.99991 17.2316 0.455946 134.643 -79.2686 -148.261
lowerback 23.419 -6.50422 3.52326
upperback 5.12572 -8.08618 -0.114793
thorax -7.78204 -4.13945 0.316797
lowerneck 3.85606 6.33096 -0.651949
upperneck 9.98636 8.39877 -4.01305
head 2.68174 3.89646 -1.07407
rclavicle 2.78299e-015 2.62396e-014
rhumerus -38.1181 12.9282 -83.3627
rradius 58.9027
rwrist 4.10802
rhand -38.6626 42.8239
rfingers 7.12502
rthumb -11.6783 13.1694
lclavicle 2.78299e-015 2.62396e-014
lhumerus 8.14224 2.08311 68.0586
lradius 122.617
lwrist 24.4402
lhand -18.9402 -15.4686
lfingers 7.12502
lthumb 7.36286 14.3833
rfemur -9.03435 10.3373 19.7232
rtibia 41.9985
rfoot -4.14614 -11.8232
rtoes -12.0928
lfemur 1.1533 -15.829 -20.0061
ltibia 36.4913
lfoot -36.2785 20.913
ltoes 7.09647
